# xmcd
#
# Track frame offsets: 
#        150
#        11470
#        23660
#        36859
#        47870
#        61120
#        74490
#        86820
#        99086
#        114730
#        128382
#        142475
#        153860
#        164950
#        179050
#        193310
#        207670
#        224710
#
# Disc length: 3199 seconds
#
# Revision: 1
# Processed by: cddbd v1.5.2PL0 Copyright (c) Steve Scherf et al.
# Submitted via: ExactAudioCopy v0.95b4
#
DISCID=170c7d12
DTITLE=Charlie Parker Vol.4 1947 - Bebop Story 026
DYEAR=2008
DGENRE=Bebob
TTITLE0=Donna Lee
TTITLE1=Chasin' The Bird
TTITLE2=Cheryl
TTITLE3=Buzzy
TTITLE4=Dexterity (1)
TTITLE5=Dexterity (2)
TTITLE6=Bongo Bop (1)
TTITLE7=Bongo Bop (2)
TTITLE8=Prezology
TTITLE9=Dewey Square (1)
TTITLE10=Dewey Square (2)
TTITLE11=The Hymn
TTITLE12=Superman (The Hymn)
TTITLE13=Bird Of Paradise (1)
TTITLE14=Bird Of Paradise (2)
TTITLE15=Bird Of Paradise (3)
TTITLE16=Embraceable You (1)
TTITLE17=Embraceable You (2)
EXTD=YEAR: 2008
EXTT0=
EXTT1=
EXTT2=
EXTT3=
EXTT4=
EXTT5=
EXTT6=
EXTT7=
EXTT8=
EXTT9=
EXTT10=
EXTT11=
EXTT12=
EXTT13=
EXTT14=
EXTT15=
EXTT16=
EXTT17=
PLAYORDER=
